# xmcd
#
# Track frame offsets: 
#        150
#        13359
#        22370
#        36188
#        49007
#        65916
#        80447
#        91975
#        109392
#        128348
#        140600
#        154441
#
# Disc length: 2274 seconds
#
# Revision: 0
# Processed by: cddbd v1.5.2PL0 Copyright (c) Steve Scherf et al.
# Submitted via: ExactAudioCopyFreeDBPlugin 1.0
#
DISCID=ad08e00c
DTITLE=Kacey Musgraves - Kacey Musgraves
DYEAR=2007
DGENRE=Country
TTITLE0=Back To Texas
TTITLE1=Honkytonk Heartache
TTITLE2=Halfway To Memphis
TTITLE3=Nothing More
TTITLE4=Heart Of Gold
TTITLE5=Next Time
TTITLE6=You're Still On My Mind
TTITLE7=Whispers Of Your Name
TTITLE8=Falling
TTITLE9=Back Home
TTITLE10=Think Of Me
TTITLE11=Pieces
EXTD=
EXTT0=
EXTT1=
EXTT2=
EXTT3=
EXTT4=
EXTT5=
EXTT6=
EXTT7=
EXTT8=
EXTT9=
EXTT10=
EXTT11=
PLAYORDER=
